# xmcd
#
# Track frame offsets:
#	150
#	11360
#	21935
#	33510
#	44015
#	55500
#	66907
#	78520
#	91095
#	103077
#	115902
#	127697
#	139715
#	151540
#	164007
#	174600
#	188020
#	200545
#	211007
#	222437
#	233615
#	245560
#
# Disc length: 3401 seconds
#
# Revision: 1
# Processed by: cddbd v1.4PL0 Copyright (c) Steve Scherf et al.
# Submitted via: audiograbber 1.80
#
DISCID=220d4716
DTITLE=JAMES, Sonny - Young Love 1952-62 disc 1
DYEAR=1900
DGENRE=
TTITLE0=It's So Nice To Make Up 
TTITLE1=Believe Another's Lips 
TTITLE2=I Wish 
TTITLE3=Shortcut 
TTITLE4=That's Me Without You 
TTITLE5=Cold, Cold, Colder 
TTITLE6=Somebody Else's Heartache 
TTITLE7=The One I Can't Forget 
TTITLE8=I've Always Wanted You 
TTITLE9=I Forgot More Than You'll Ever Know 
TTITLE10=Poor Boy, Rich Lovin' 
TTITLE11=Won't Somebody Tell Me 
TTITLE12=My Greatest Thrill 
TTITLE13=The Table Next To Mine 
TTITLE14=That's How I Need You 
TTITLE15=This Kiss Must Last Forever 
TTITLE16=She Done Give Her Heart To Me 
TTITLE17=Oceans Of Tears (I've Shed For You) 
TTITLE18='Til The Last Leaf Shall Fall 
TTITLE19=You Don't Have To Walk Alone 
TTITLE20=Christmas In My Hometown 
TTITLE21=I Forgot To Remember Santa Claus 
EXTD=
EXTT0=
EXTT1=
EXTT2=
EXTT3=
EXTT4=
EXTT5=
EXTT6=
EXTT7=
EXTT8=
EXTT9=
EXTT10=
EXTT11=
EXTT12=
EXTT13=
EXTT14=
EXTT15=
EXTT16=
EXTT17=
EXTT18=
EXTT19=
EXTT20=
EXTT21=
PLAYORDER=
